<?xml version="1.0" encoding="UTF-8" standalone="no"?>
<svg width="1282px" height="602px" viewBox="0 0 1282 602" version="1.1" xmlns="http://www.w3.org/2000/svg" xmlns:xlink="http://www.w3.org/1999/xlink" xmlns:sketch="http://www.bohemiancoding.com/sketch/ns">
    <defs>
        <linearGradient x1="74.0362549%" y1="119.190104%" x2="74.0362525%" y2="-32.0572917%" id="linearGradient-1">
            <stop stop-color="#3023AE" offset="0%"></stop>
            <stop stop-color="#C96DD8" offset="100%"></stop>
        </linearGradient>
    </defs>
    <g id="Page-1" stroke="none" stroke-width="1" fill="none" fill-rule="evenodd" sketch:type="MSPage">
        <rect id="Background" stroke="#979797" fill="url(#linearGradient-1)" sketch:type="MSShapeGroup" x="1" y="1" width="1280" height="600"></rect>
        <g id="odoo" sketch:type="MSLayerGroup" transform="translate(493.000000, 206.000000)" fill="#FFFFFF">
            <path d="M36.3288684,23.2110302 C41.156191,23.2110302 45.7151172,24.1734422 50.0027865,26.0973116 C54.2895024,28.0216583 58.0584944,30.6124372 61.3111926,33.8686935 C64.5629374,37.1254271 67.1501268,40.9254271 69.0718074,45.2667839 C70.993488,49.611005 71.9540899,54.2478643 71.9540899,59.1811809 C71.9540899,64.1173618 71.0163708,68.729397 69.1456998,73.0220603 C67.2721685,77.3147236 64.7340819,81.0894221 61.5323933,84.3461558 C58.3287978,87.6024121 54.5593291,90.169799 50.2239872,92.0435427 C45.8862616,93.9196734 41.2067239,94.8563065 36.1806067,94.8563065 C31.2517416,94.8563065 26.6208299,93.9683668 22.285488,92.1920101 C17.9477624,90.4151759 14.1554109,87.9246482 10.9031894,84.716608 C7.65144462,81.5104774 5.08761477,77.7362563 3.21646709,73.3920352 C1.34341252,69.0506784 0.407600321,64.3135678 0.407600321,59.1811809 C0.407600321,54.2478643 1.31766934,49.6334422 3.14209791,45.3407789 C4.96461958,41.0481156 7.50270626,37.2987186 10.7554045,34.0911558 C14.0071493,30.8850251 17.825244,28.3176382 22.2115955,26.3937688 C26.5955634,24.4694221 31.3027512,23.4096231 36.3288684,23.2110302 L36.3288684,23.2110302 Z M36.1810835,37.8653769 C33.3216838,37.8653769 30.5871862,38.4091206 27.977114,39.4937437 C25.3651348,40.5807538 23.0992584,42.0845226 21.1771011,44.0088693 C19.2554205,45.9327387 17.7265618,48.1788442 16.5948154,50.7438442 C15.4606854,53.3112312 14.8948122,56.123995 14.8948122,59.1811809 C14.8948122,62.0445477 15.4611621,64.7833166 16.5948154,67.3970101 C17.7265618,70.0126131 19.2554205,72.3074121 21.1771011,74.2804523 C23.0987817,76.255402 25.3646581,77.8097739 27.977114,78.9430905 C30.5871862,80.078794 33.3216838,80.6454523 36.1810835,80.6454523 C39.0380995,80.6454523 41.7730738,80.0783166 44.3855297,78.9430905 C46.9956019,77.8097739 49.2633852,76.255402 51.1855425,74.2804523 C53.1072231,72.3074121 54.6336982,70.0130905 55.7678283,67.3970101 C56.8995746,64.7833166 57.4673547,62.0445477 57.4673547,59.1811809 C57.1717849,53.3599246 55.1023194,48.4495226 51.259435,44.4523618 C47.4155971,40.4556784 42.4381059,38.2606533 36.3293451,37.8648995 L36.1810835,37.8648995 L36.1810835,37.8653769 Z" id="Shape" sketch:type="MSShapeGroup"></path>
            <path d="M139.21291,0.414849246 C140.887647,0.317462312 142.464655,0.983417085 143.943457,2.41319095 C145.421783,3.84487437 146.160231,5.39924623 146.160231,7.07630653 L146.160231,59.0336683 C146.160231,63.8700754 145.174363,68.4587186 143.204056,72.8000754 C141.231366,77.1442965 138.570761,80.9419095 135.221764,84.1981658 C131.870384,87.4548995 128.052289,90.0456784 123.765573,91.9695477 C119.478857,93.8938945 114.969987,94.8563065 110.239917,94.8563065 C105.41021,94.8563065 100.827925,93.9196734 96.4921059,92.0435427 C92.1543804,90.169799 88.3620289,87.6024121 85.1098074,84.3461558 C81.8580626,81.0898995 79.2708732,77.291809 77.3491926,72.9480653 C75.427512,68.6067085 74.4669101,63.9688945 74.4669101,59.0336683 C74.4669101,53.704598 75.3283531,49.0185678 77.0536228,44.970804 C78.7765088,40.9254271 81.3636982,37.1254271 84.8142376,33.5727136 L84.8142376,33.7211809 C88.4592809,30.2682412 92.4756934,27.6516834 96.8615682,25.8753266 C101.245536,24.0989698 105.753929,23.2110302 110.387225,23.2110302 C113.145082,23.2110302 116.42257,23.655 120.217305,24.5434171 C124.010133,25.4313568 127.779602,27.1590201 131.526188,29.7244975 L131.526188,7.81625628 C131.526188,6.83092965 131.722122,5.89190955 132.117327,5.00349246 C132.509673,4.11555276 133.027396,3.30113065 133.669546,2.5611809 C134.309311,1.82075377 135.073502,1.25409548 135.960689,0.858819095 C136.847398,0.465929648 137.735061,0.317462312 138.62177,0.414849246 L139.21291,0.414849246 L139.21291,0.414849246 Z M131.526188,59.0336683 C131.526188,56.3693719 130.957931,53.755201 129.826185,51.1878141 C128.692055,48.6228141 127.139836,46.3284925 125.16953,44.3048492 C123.196839,42.2831156 120.930963,40.6776633 118.369517,39.4937437 C115.805687,38.3098241 113.096456,37.7173869 110.23944,37.7173869 C107.38004,37.7173869 104.645543,38.2859548 102.034994,39.4192714 C99.4230144,40.5549749 97.157138,42.0840452 95.2349807,44.008392 C93.3137769,45.9322613 91.7844414,48.2036683 90.652695,50.8173618 C89.518565,53.4334422 88.9531685,56.1722111 88.9531685,59.033191 C88.9531685,61.9934673 89.5190417,64.7575377 90.652695,67.3225377 C91.7844414,69.8899246 93.3137769,72.1336432 95.2349807,74.0575126 C97.1566613,75.9818593 99.4225377,77.5128392 102.034994,78.6461558 C104.645543,79.7818593 107.38004,80.3485176 110.23944,80.3485176 C113.096456,80.3485176 115.805687,79.7813819 118.369517,78.6461558 C120.930963,77.5128392 123.196839,75.9818593 125.16953,74.0575126 C127.139836,72.1336432 128.692055,69.8899246 129.826185,67.3225377 C130.957454,64.7580151 131.526188,61.9939447 131.526188,59.0336683 L131.526188,59.0336683 Z" id="Shape" sketch:type="MSShapeGroup"></path>
            <path d="M186.219953,23.2110302 C191.047276,23.2110302 195.606202,24.1734422 199.893872,26.0973116 C204.180587,28.0216583 207.949579,30.6124372 211.202278,33.8686935 C214.454022,37.1254271 217.041212,40.9254271 218.962892,45.2667839 C220.884573,49.611005 221.845175,54.2478643 221.845175,59.1811809 C221.845175,64.1173618 220.907456,68.729397 219.036785,73.0220603 C217.163254,77.3147236 214.625167,81.0894221 211.423478,84.3461558 C208.219883,87.6024121 204.450414,90.169799 200.115072,92.0435427 C195.777347,93.9196734 191.097809,94.8563065 186.071692,94.8563065 C181.142827,94.8563065 176.511915,93.9683668 172.176573,92.1920101 C167.838848,90.4151759 164.046496,87.9246482 160.794274,84.716608 C157.54253,81.5104774 154.9787,77.7362563 153.107552,73.3920352 C151.234498,69.0506784 150.298685,64.3135678 150.298685,59.1811809 C150.298685,54.2478643 151.208754,49.6334422 153.033183,45.3407789 C154.855705,41.0481156 157.393791,37.2987186 160.64649,34.0911558 C163.898234,30.8850251 167.716329,28.3176382 172.102681,26.3937688 C176.486648,24.4694221 181.193836,23.4096231 186.219953,23.2110302 L186.219953,23.2110302 Z M186.072169,37.8653769 C183.212769,37.8653769 180.478271,38.4091206 177.868199,39.4937437 C175.25622,40.5807538 172.990343,42.0845226 171.068186,44.0088693 C169.146506,45.9327387 167.617647,48.1788442 166.4859,50.7438442 C165.35177,53.3112312 164.785897,56.123995 164.785897,59.1811809 C164.785897,62.0445477 165.352247,64.7833166 166.4859,67.3970101 C167.617647,70.0126131 169.146506,72.3074121 171.068186,74.2804523 C172.989867,76.255402 175.255743,77.8097739 177.868199,78.9430905 C180.478271,80.078794 183.212769,80.6454523 186.072169,80.6454523 C188.929185,80.6454523 191.664159,80.0783166 194.276615,78.9430905 C196.886687,77.8097739 199.15447,76.255402 201.076628,74.2804523 C202.998308,72.3074121 204.524783,70.0130905 205.658913,67.3970101 C206.79066,64.7833166 207.35844,62.0445477 207.35844,59.1811809 C207.06287,53.3599246 204.993404,48.4495226 201.15052,44.4523618 C197.306682,40.4556784 192.329191,38.2606533 186.22043,37.8648995 L186.072169,37.8648995 L186.072169,37.8653769 Z" id="Shape" sketch:type="MSShapeGroup"></path>
            <path d="M261.313281,23.2110302 C266.140604,23.2110302 270.69953,24.1734422 274.987199,26.0973116 C279.273915,28.0216583 283.042907,30.6124372 286.295605,33.8686935 C289.54735,37.1254271 292.134539,40.9254271 294.05622,45.2667839 C295.9779,49.611005 296.938502,54.2478643 296.938502,59.1811809 C296.938502,64.1173618 296.000783,68.729397 294.130112,73.0220603 C292.256581,77.3147236 289.718494,81.0894221 286.516806,84.3461558 C283.31321,87.6024121 279.543742,90.169799 275.2084,92.0435427 C270.870674,93.9196734 266.191136,94.8563065 261.165019,94.8563065 C256.236154,94.8563065 251.605242,93.9683668 247.2699,92.1920101 C242.932175,90.4151759 239.139823,87.9246482 235.887602,84.716608 C232.635857,81.5104774 230.072027,77.7362563 228.20088,73.3920352 C226.327825,69.0506784 225.392013,64.3135678 225.392013,59.1811809 C225.392013,54.2478643 226.302082,49.6334422 228.12651,45.3407789 C229.949032,41.0481156 232.487119,37.2987186 235.739817,34.0911558 C238.991562,30.8850251 242.809657,28.3176382 247.196008,26.3937688 C251.579976,24.4694221 256.287164,23.4096231 261.313281,23.2110302 L261.313281,23.2110302 Z M261.165019,37.8653769 C258.30562,37.8653769 255.571122,38.4091206 252.96105,39.4937437 C250.349071,40.5807538 248.083194,42.0845226 246.161037,44.0088693 C244.239356,45.9327387 242.710498,48.1788442 241.578751,50.7438442 C240.444621,53.3112312 239.878748,56.123995 239.878748,59.1811809 C239.878748,62.0445477 240.445098,64.7833166 241.578751,67.3970101 C242.710498,70.0126131 244.239356,72.3074121 246.161037,74.2804523 C248.082717,76.255402 250.348594,77.8097739 252.96105,78.9430905 C255.571122,80.078794 258.30562,80.6454523 261.165019,80.6454523 C264.022035,80.6454523 266.75701,80.0783166 269.369465,78.9430905 C271.979538,77.8097739 274.247321,76.255402 276.169478,74.2804523 C278.091159,72.3074121 279.617634,70.0130905 280.751764,67.3970101 C281.88351,64.7833166 282.451291,62.0445477 282.451291,59.1811809 C282.155721,53.3599246 280.086255,48.4495226 276.242894,44.4523618 C272.399533,40.4556784 267.422042,38.2606533 261.313281,37.8648995 L261.165019,37.8648995 L261.165019,37.8653769 Z" id="Shape" sketch:type="MSShapeGroup"></path>
        </g>
        <path d="M576.96994,474.984594 L529.603887,474.984594 C526.303116,474.984594 523.6625,477.62521 523.6625,480.92598 L523.6625,535.058613 C523.6625,538.359384 526.303116,541 529.603887,541 L576.96994,541 C580.270711,541 582.911327,538.359384 582.911327,535.058613 L582.911327,480.92598 C582.911327,477.62521 580.270711,474.984594 576.96994,474.984594 L576.96994,474.984594 Z M579.610557,535.058613 C579.610557,536.54396 578.455287,537.69923 576.96994,537.69923 L529.603887,537.69923 C528.11854,537.69923 526.96327,536.54396 526.96327,535.058613 L526.96327,480.92598 C526.96327,479.440634 528.11854,478.285364 529.603887,478.285364 L576.96994,478.285364 C578.455287,478.285364 579.610557,479.440634 579.610557,480.92598 L579.610557,535.058613 L579.610557,535.058613 Z M538.515966,531.097689 L545.9427,524.496148 L538.515966,517.894608 L538.515966,531.097689 L538.515966,531.097689 Z M565.252206,504.36145 C563.931898,503.041141 561.45632,501.390756 557.330357,501.390756 C552.874317,501.390756 548.253239,502.546026 544.952468,503.701296 L544.952468,484.886905 L538.515966,484.886905 L538.515966,513.438568 L543.137045,511.293067 C543.137045,511.293067 550.728817,507.827258 557.330357,507.827258 C560.631127,507.827258 561.45632,509.642682 561.45632,511.293067 L561.45632,531.097689 L568.057861,531.097689 L568.057861,511.293067 C568.057861,510.797952 568.057861,507.167104 565.252206,504.36145 L565.252206,504.36145 Z M556.505165,495.614408 L563.106705,495.614408 C566.077398,492.148599 567.562745,488.682791 568.057861,484.886905 L561.45632,484.886905 C560.796166,488.682791 559.145781,492.148599 556.505165,495.614408 L556.505165,495.614408 Z M738.872724,511.128029 L738.872724,496.439601 L745.474265,496.439601 L745.474265,510.96299 C745.474265,514.263761 746.629534,515.914146 749.270151,515.914146 C751.910767,515.914146 752.900998,514.428799 752.900998,510.96299 L752.900998,496.439601 L759.3375,496.439601 L759.3375,511.128029 C759.3375,517.564531 756.201768,521.360417 749.105112,521.360417 C742.008456,521.360417 738.872724,517.564531 738.872724,511.128029 L738.872724,511.128029 Z M711.146254,496.604639 L717.747794,496.604639 L717.747794,505.516719 L724.514373,496.604639 L732.106145,496.604639 L723.854219,506.176873 L732.766299,521.03034 L725.339566,521.03034 L719.563218,511.293067 L717.747794,513.438568 L717.747794,521.03034 L711.146254,521.03034 L711.146254,496.604639 L711.146254,496.604639 Z M679.788936,508.652451 C679.788936,499.740371 685.895361,495.944485 691.836747,495.944485 C697.778134,495.944485 703.884559,499.740371 703.884559,508.652451 C703.884559,517.564531 697.778134,521.360417 691.836747,521.360417 C685.895361,521.360417 679.788936,517.729569 679.788936,508.652451 L679.788936,508.652451 Z M697.11798,508.652451 C697.11798,504.196411 695.137518,501.390756 691.671709,501.390756 C688.2059,501.390756 686.225438,504.196411 686.225438,508.652451 C686.225438,513.108491 688.2059,516.079184 691.671709,516.079184 C695.137518,516.079184 697.11798,513.273529 697.11798,508.652451 L697.11798,508.652451 Z M653.217735,496.604639 L662.789968,496.604639 C669.061432,496.604639 672.857318,498.75014 672.857318,504.526488 C672.857318,508.322374 671.206933,510.632913 668.071201,511.623144 L673.187395,521.03034 L666.255777,521.03034 L661.46966,512.613375 L659.654237,512.613375 L659.654237,521.03034 L653.217735,521.03034 L653.217735,496.604639 L653.217735,496.604639 Z M662.62493,507.497181 C665.265546,507.497181 666.585854,506.671989 666.585854,504.691527 C666.585854,502.711064 665.430585,501.885872 662.62493,501.885872 L659.819275,501.885872 L659.819275,507.497181 L662.62493,507.497181 L662.62493,507.497181 Z M627.966842,496.604639 L645.460924,496.604639 L645.460924,502.05091 L634.568382,502.05091 L634.568382,506.011835 L642.325193,506.011835 L642.325193,511.128029 L634.568382,511.128029 L634.568382,515.584069 L645.95604,515.584069 L645.95604,520.865301 L627.966842,520.865301 L627.966842,496.604639 L627.966842,496.604639 Z M598.09487,496.604639 L604.696411,496.604639 L604.696411,505.681758 L612.783298,505.681758 L612.783298,496.604639 L619.384839,496.604639 L619.384839,521.03034 L612.783298,521.03034 L612.783298,511.128029 L604.696411,511.128029 L604.696411,521.03034 L598.09487,521.03034 L598.09487,496.604639 L598.09487,496.604639 Z" id="heroku" fill="#FFFFFF" sketch:type="MSShapeGroup"></path>
    </g>
</svg>
